<?php ?>
<!DOCTYPE svg PUBLIC "-//W3C//DTD SVG 1.1//EN" "http://www.w3.org/Graphics/SVG/1.1/DTD/svg11.dtd">
<svg xmlns="http://www.w3.org/2000/svg" version="1.0" viewBox="0 0 3000 2455" style="transform:scale(1.5)">
  <path d="M1473 138l-7 5c-3 3-4 3-5 1-2-2-11-6-15-6-5 0-11 3-16 6l-3 3-5-3c-10-5-19-4-26 4l-4 3-4-2c-10-6-19-4-27 3l-4 4-6-3c-5-2-7-2-11-2-6 1-11 4-15 9l-2 3-5-2c-6-2-13-2-18 0-4 2-10 7-11 10 0 1-2 1-4-1l-9-2c-9 0-17 4-22 14l-3-1-10-2c-7 0-12 3-17 9-2 3-4 4-5 4h-17c-4 2-12 8-12 12-1 2-1 2-5 2l-9-1c-8 0-16 5-19 13-1 3-1 3-8 2-7 0-9 0-12 2-5 2-11 9-12 13 0 1-1 2-8 2s-8 0-13 3c-4 2-5 4-8 9-2 6-3 6-6 5-11-2-21 5-25 16-1 4-1 4-5 4-5-1-11 1-16 4-3 3-7 9-8 13-1 3-1 3-6 3-11 0-19 6-22 17l-1 5h-5c-10 0-19 8-21 18l-1 5h-5c-11 1-18 8-20 19l-1 4-5 1-9 4c-5 2-9 10-10 16 0 5-1 5-3 6-8 1-11 3-15 7s-6 10-6 16c0 3 0 3-3 3l-7 2c-7 4-12 11-12 20v5l-5 1c-11 4-16 11-16 22 0 5-1 6-2 6-3 0-12 5-14 9-3 4-5 11-4 16 0 4 0 4-5 6l-5 2 30-1c31 0 36-1 43-6 4-3 7-9 7-16 0-6 0-6 3-7 7-1 9-2 12-6 4-4 5-7 5-14v-5l6-1 8-3c5-3 8-10 8-16v-5l6-1c10-2 16-8 17-18v-5l5-1c10 0 18-7 19-17v-5l7-1c11-1 16-6 18-16l1-4 5-1 9-2c5-2 9-7 10-13l2-6h6c6 0 7 0 11-3 5-3 8-8 9-13 1-3 1-3 6-3h8c5-1 11-8 13-14l2-5 5 1h9c4-1 10-7 13-13l2-5 4 1c6 2 14 0 19-5l4-7 3-4 5 1c8 2 18-3 22-11 2-4 2-4 5-3h9c7 0 13-3 16-8 3-6 3-6 8-4 6 1 11 1 16-2 3-1 8-6 10-9 1-2 1-2 5-1l8 2c6 0 13-4 16-9 2-3 4-4 5-3 9 4 14 4 21 0l7-6 3-4 3 2c9 5 20 3 26-5l3-4 3 2c2 1 5 3 8 3 7 2 13 0 18-6l4-4 4 3c8 5 19 4 26-4l3-3 4 3c8 6 18 5 26-2l4-3 3 3c7 6 19 6 27-1l3-3 3 3c4 4 8 5 15 5 6 0 8-1 12-5l3-2 3 3c9 7 18 8 26 2l5-3 3 3c7 8 18 9 26 4l4-3 3 4 6 5c5 2 13 2 19-1l4-2 4 4c7 7 17 9 26 4l4-2 1 3c3 4 8 8 14 9 4 1 5 1 10-1l7-2 1 2c3 5 8 9 12 10 5 1 8 1 14-1 4-1 4-1 5 1 3 4 10 10 14 11h11c6-2 6-2 9 4l6 6c4 2 6 3 10 3l9-1c2-1 3-1 6 4 4 9 13 12 23 10 4-1 4-1 7 5 3 7 9 10 16 10h8c2 0 3 0 4 4 1 5 7 11 12 12l9 1 6-1 2 5c1 6 7 12 12 13l9 1c5 0 5 0 6 2 2 11 9 17 20 17 6 0 6 0 7 3 2 11 10 18 21 18 4 0 4 0 5 6 3 10 8 14 19 15l6 1v5c1 10 8 16 18 17l6 1v5c1 10 7 16 17 18l6 1v5c0 4 2 10 5 13 2 3 8 6 13 6 3 1 4 1 3 4l1 8c2 7 8 12 15 14l5 1v6c0 10 6 18 16 20 3 1 4 2 3 3v3c0 2-1 2-21 2h-22l-14-10a895 895 0 00-1056 2l-11 8h-67l-68 1-7 2c-13 6-23 14-29 27-5 9-7 18-7 30v10h-4c-9 0-18 6-21 15l-1 4h-7l-10 2c-4 3-10 10-11 14l-1 5h-6c-11 0-19 7-21 19-1 2-1 3-6 3-11 0-19 7-21 17l-1 5-5 1c-10 0-18 8-20 19l-1 5h-5c-11 1-19 10-19 21 0 4 0 4-5 4-10 1-17 10-19 21 0 4-1 5-3 6-6 1-9 2-12 5-5 5-7 10-7 16s0 6-2 6c-5 0-13 5-16 9-2 4-3 6-3 12 0 7 0 7-3 8-11 2-17 10-17 22 0 7 0 7-3 7-5 1-11 6-14 12-2 4-2 6-2 11l1 7-6 2c-4 2-7 4-9 7-2 4-3 5-3 13v9l-5 3c-7 3-10 8-11 16l1 9c1 4 1 4-3 5-5 3-11 9-12 14-1 4-1 11 1 15 1 1 0 3-4 5-5 3-8 7-10 13v11c2 5 2 7 1 7-9 5-14 13-13 21l2 9c2 3 2 3-2 5-9 6-13 18-8 27l2 4-5 5c-7 7-9 17-5 26l2 4-4 5c-8 8-9 17-4 26l2 4-3 4c-5 4-7 10-7 16 0 4 2 10 5 13 1 2 1 2-2 5-8 8-9 22-1 30 1 2 1 2-2 7-4 4-5 7-5 11-1 7 0 10 3 15l4 5-2 2c-3 3-6 10-6 15s3 12 6 16l2 2-3 5c-6 8-5 18 2 26l4 4-3 5c-4 4-5 13-3 19l5 8 4 4-2 3c-6 9-5 19 3 27l4 5-2 4c-5 10-4 18 4 25l5 5-2 4-2 10c0 7 3 13 9 18 4 3 4 3 2 6l-2 8c-1 8 3 16 9 20 4 3 5 3 3 6-1 4-1 13 1 18 1 4 5 8 9 10 2 1 3 2 2 3v17c1 5 7 11 11 13l3 1-1 6c-2 11 4 22 12 25l4 1-1 7v9c1 5 8 12 13 14l4 2-1 6 1 9c2 6 8 13 13 14l5 2-1 6c-1 10 5 19 15 22 4 2 4 2 4 5-1 9 4 18 12 22l7 3c2 0 2 1 2 5 0 7 2 12 5 16 3 3 12 7 15 7 2 0 2 0 2 5 0 7 3 13 7 17 4 3 10 5 14 5 1 0 2 1 2 6s1 7 4 10c3 5 11 10 17 10 3 0 3 0 3 4 0 5 3 11 7 15 3 3 11 6 16 6 1 0 2 1 3 5 2 11 9 17 19 18h6l1 5c2 11 11 18 23 18 4 0 4 0 5 4 2 11 11 17 22 17h6l1 4c2 10 12 16 22 16 6-1 6 0 6 2 2 4 6 11 9 13 2 1 3 2 4 6 3 13 12 26 23 33 10 6 16 8 30 9 12 0 12 1 12 2 0 5 2 12 6 16 3 4 10 8 12 8s2 1 2 6c0 8 2 14 8 18 2 2 5 4 8 4l4 2v6c1 6 2 10 7 14 3 4 9 7 13 7 2 0 2 0 2 4 0 11 8 21 19 23 4 0 4 0 4 3 0 12 11 23 22 23 3 0 3 0 3 4 0 11 8 19 20 21 5 0 5 0 5 3 0 10 10 20 21 20h5l1 6c1 4 2 6 6 10 5 5 9 7 17 7l4 1c0 4 2 10 6 13 4 5 10 7 17 7l5-1 1 4c1 6 4 11 9 14l12 3h7l2 4c4 10 10 14 21 14h8l1 4c3 9 13 15 23 14l7-1 1 4c5 11 16 15 29 11 1 0 2 0 3 3 4 10 15 15 25 12 5-1 6-1 6 1 5 6 7 9 11 11 5 2 13 3 18 1 4-2 4-2 5 1 3 5 9 10 15 11 5 1 7 1 12-1l6-2 2 4c3 4 8 8 14 9 5 1 7 1 16-3 2 0 3 0 4 2l6 6c7 5 15 5 23 1l3-2 3 4c7 8 18 10 27 5l5-3 3 3c7 8 17 10 27 5l5-3 3 3c7 7 17 8 27 3l5-3 4 3c5 4 8 5 14 5s12-3 15-5c2-3 2-3 7 1 8 6 19 6 27-1l4-3 2 2c3 2 11 6 14 6 4 0 12-3 15-6l4-4 4 3c9 6 21 5 28-3l3-3 5 2c10 5 22 3 28-5l2-3 5 3c10 4 20 2 27-6l3-3 4 2c7 2 15 2 21-1l5-4 2-3c2-3 3-3 6-2 8 5 18 3 24-3l5-6c1-2 2-2 5-1 10 5 24 0 28-10l1-3 5 2c11 3 20-1 25-10 3-4 4-5 6-4 5 2 13 1 18-1 4-2 9-8 10-12 1-2 1-2 8-1l10-1c5-2 13-9 14-13v-3l7 1c5 0 7 0 12-3 6-2 10-8 11-13 1-3 1-3 5-3 6 1 12 0 16-3s9-9 10-13c0-3 0-3 7-3 10 0 18-5 21-15l2-5h6l9-2c6-4 12-12 12-18 0-2 1-2 5-2 10 0 20-8 22-19 0-4 0-4 3-4 10 0 19-7 21-15l2-8c0-1 1-2 4-2 6 0 9-1 13-5 4-3 7-8 8-15 0-5 0-5 3-5 10 0 20-10 20-21v-5l6-1c10-2 18-13 17-23-1-3 0-4 3-4 12-3 19-12 18-24-1-4-1-4 3-5 7-2 11-4 14-10l3-11v-7l5-2 8-6c3-3 5-4 10-5 10-3 18-7 26-15 11-11 16-22 17-41v-12h5c10-2 18-9 20-17v-3h6c11 0 19-5 22-15l2-5h6c8-1 13-4 17-10l4-8c0-4 0-4 5-4 11 0 22-10 22-21 0-2 0-2 4-2 8 0 16-5 19-12l3-9 1-3 7-1c9-2 17-12 17-22 0-3 0-3 5-3 10-1 18-10 18-21v-5l4-1c5 0 11-3 13-6 3-3 6-10 6-16 0-5 0-5 3-5s11-5 14-8c3-4 4-9 4-14v-6l5-1c10-4 15-12 15-22l-1-6 5-2c11-4 16-12 15-23-1-6-1-6 2-7 5-1 10-5 13-11 2-5 2-6 2-12l-1-7 6-3c4-2 6-4 8-8 3-5 3-6 3-11l-2-8c0-1 0-2 2-2 3-1 10-7 12-10 3-6 3-13 0-20l4-4c10-5 14-17 10-27-2-4-2-4 1-5 7-4 12-12 12-20l-2-8-2-5 4-3c6-4 9-10 9-18l-1-9-2-3 4-4c8-7 10-18 6-26l-3-5 5-5c8-8 9-18 3-27l-2-3 5-4c7-8 8-18 2-27l-2-4 3-3c7-7 8-17 3-27l-3-5 3-4c4-5 5-8 5-14s-2-11-5-15l-2-2 2-3c8-10 8-20 0-29l-3-4 2-2c6-7 7-18 3-25l-5-6-2-2 3-4c2-4 4-9 4-14 0-4-5-12-8-15l-2-2 2-5c6-10 3-22-5-28l-3-2 3-5c4-10 2-20-6-27l-3-3 2-4c4-10 1-22-7-28l-4-2 2-5c4-10 1-21-8-26l-4-3 2-4c3-10 0-21-9-27-4-2-4-3-4-5 4-13 0-23-9-28-5-2-5-3-4-5l1-10c-1-8-4-13-11-17l-5-2 1-7-1-11c-2-4-9-11-13-13-4-1-4-1-3-5s1-10-2-15c-2-4-9-10-13-11-3 0-3-1-3-7 0-11-5-18-14-22l-5-1v-6c0-11-6-20-16-22l-4-1v-7l-3-10c-3-5-10-10-15-11-4 0-4 0-4-5l-2-9c-3-7-12-13-19-13-2 0-2-1-2-4 0-11-11-22-22-22-1 0-2-1-3-6-2-11-9-17-20-19-5 0-5 0-5-3 0-11-10-20-22-20-3 0-4 0-4-2 0-8-7-17-16-20l-8-1c-3 1-3 1-5-5-3-10-12-17-22-16-4 0-4 0-6-4-3-11-12-17-23-16-4 1-5 1-6-1-1-5-4-10-7-12-3-3-4-6-6-11a56 56 0 00-58-39h-12v-3c0-8-7-16-15-19l-5-2v-6c0-11-6-19-15-22l-5-1v-6l-2-10c-3-4-8-9-13-10l-6-2-1-5c0-10-7-19-18-21l-5-1v-5c-1-7-3-11-7-15-4-3-9-5-13-5s-4 0-4-5c-1-11-11-20-22-20h-4v-4c0-10-9-19-21-20-5 0-5-1-5-3l-2-6c-3-8-11-13-20-13-5 0-5 0-6-3-2-12-10-18-22-18-6 0-6 0-6-2 0-4-5-12-9-15-4-2-6-3-12-3h-8l-3-6c-2-5-4-7-7-10-4-2-5-3-12-3h-8l-2-4c-3-6-5-9-10-11-4-2-6-2-12-2l-7 1-3-5c-2-6-7-9-12-11h-15c-1 1-2 0-4-3-3-6-5-8-9-10-7-3-12-4-21 0l-2-2c-1-3-7-10-10-12-4-2-13-2-18 0-3 1-4 1-5-1-6-10-17-14-27-11-6 2-6 2-8-2l-7-6c-6-3-16-4-21-1l-3 2-4-4c-7-8-16-10-26-6l-5 2-3-3c-6-7-18-9-27-5l-4 2-5-4c-7-7-18-8-27-3l-4 3-2-3c-7-7-21-8-29-3l-4 3-3-2c-8-8-20-8-29-2l-3 3-3-3c-7-5-14-6-22-4zm14 7c6 4 9 10 16 22l6 13c2 4 0 3-3-1-4-6-6-6-3-1l2 5-5-6-6-6 5 10 4 11c-1 1-9-8-13-13-5-9-13-24-10-21 2 3 3 2 0-2-2-5-1-4 4 1l4 4-4-9c-4-11-4-12 3-7zm32-2c7 4 13 13 21 32 4 10 4 10 1 7l-4-5c-2-2-2-2 0 1l1 5-5-5-4-5 4 10 2 10-4-4c-5-5-10-14-15-26-3-6-3-6-1-4l2 1-2-4-2-5 4 4c8 10 8 10 2-4l-3-9 3 1zm-71 1c4 1 11 8 14 12l14 26-5-4-4-4 2 4 2 5-5-6-5-4 5 10 3 9c-3 0-13-12-17-20l-7-12-2-3 2 2 3 3-2-5-3-5 6 6 6 6-5-10-5-10h3zm110 4l7 10 12 30-4-5c-3-4-3-4-1 3 0 2 1 2-6-7l-3-3 3 10c4 10 4 10 1 9-3-2-9-12-14-24s-6-14-3-10c1 2 1 2 1-1l-2-4v-2l2 2 7 8-3-10-4-9c0-2 2-1 7 3zm-139 2l6 6 17 27-5-4c-5-5-5-5-2 1 3 5 2 5-3-1l-5-5 5 10 4 10c0 1-8-5-12-11-6-7-15-21-14-22l1 1 1 1-1-3c-3-5-1-5 4 1l5 4-5-10-6-10 10 5zm173 2c5 4 8 9 11 16l7 24-4-4c-2-6-4-6-2-1s1 4-3-2l-4-5 2 10 2 10-8-10a157 157 0 01-10-25l-1-3 2 2c2 3 3 3 1-3l-1-4 4 6c4 6 6 7 4 4-3-7-6-19-5-19l5 4zm-211 0l9 8c4 4 19 25 19 27l-4-4c-5-5-6-5-3 1l2 3-8-6c-5-5-4-4 2 7l5 8c0 2-6-2-10-6-5-5-20-25-18-25l2 2-1-3c-4-6-2-5 4 1l5 4-4-8c-8-11-7-11-6-11l6 2zm246 5c5 5 9 14 13 29l3 13-3-5-3-5v4l1 5-4-7-4-6 3 11 2 11-9-11a227 227 0 01-8-27c2 3 2 2 1-3l-1-4 4 7 5 6-5-20c-2-3 0-2 5 2zm-280 2c6 3 14 11 22 23 8 10 8 11 4 8l-5-4-2-2 2 3c3 5 2 5-5-1l-4-3 1 3a366 366 0 0011 16l-3-1c-4-2-11-8-19-18-10-13-10-12-7-11l2 1-2-3c-3-4-2-5 3 0 7 6 8 6 7 4l-6-8c-9-11-8-12 1-7zm314 5c4 5 6 8 8 15l7 28-3-5-3-5v4l1 5-4-7-3-7 1 9 2 11c0 2 0 2-3-1-4-4-6-10-10-25-3-12-4-13-1-10v-1l-1-6 4 6c5 8 5 7 0-13 0-3 1-2 5 2zm-350 2l11 6c5 5 20 23 20 25l-4-3c-6-5-7-5-3 0l2 4-1-1-10-7a201 201 0 0012 18l-11-5a157 157 0 01-19-23l2 1c1 0 0-2-2-3-4-5-3-5 3-1l6 5c2 1-2-5-9-13-5-5-4-6 3-3zm385 8c4 5 8 14 10 27 3 17 3 18-2 6-2-3-2-2-1 3v4l-3-6-3-6v5l2 11v6l-2-3c-4-5-7-12-9-25-3-14-4-15-2-12 2 2 2 2 1-2v-4l3 7c4 8 5 7 2-7-2-9-2-10 0-9l4 5zm-418 1c7 2 17 11 26 23 6 8 6 8 0 3-5-4-6-4-2 1l3 4-6-4-7-4 7 9c7 8 7 10 0 6a153 153 0 01-25-24l2 1-2-3c-3-4-2-5 2-2l6 5c4 2 4 2-9-13-4-5-3-5 5-2zm454 13c4 7 5 11 6 25 2 16 2 16-1 9l-2-6v8l-1-1-3-6-2-5v7l2 10c0 5-1 5-4-1-3-5-5-13-7-26-2-10-2-12 0-8v-7l4 7c3 6 3 6 3 3l-2-11v-7l2 2c2 1 4 5 5 7zm-483-1c4 2 28 24 28 26l-4-2c-7-4-8-4-4-1 4 5 3 5-3 1l-6-3 10 11 4 6-7-3c-5-2-10-6-18-13l-8-9 3 1-3-3c-4-5-3-5 4 0l7 3-8-9-9-8h5l9 3zm518 16c2 7 4 22 4 31v6l-2-6c-2-6-2-6-2 0v3l-3-6-3-7v21l-6-12a359 359 0 01-2-27c1 3 1 2 1-3l-1-5 3 6c3 8 4 10 4 5l-1-12-1-7 3 3 6 10zm-557-6l11 5c6 4 24 21 24 22l-5-2c-6-4-7-4-3-1 4 5 3 5-4 1l-5-3c-1 0 2 4 7 8l6 8c-3 0-10-3-18-10-11-8-17-14-14-13 3 2 2 0-1-3-5-3-3-3 3 0l6 3-7-8-6-8 6 1zm585 10c4 7 6 15 6 32l1 16-2-7-2-6v5l-1 5-1-6c-4-11-4-11-4 2 0 11 0 11-2 9-3-5-5-15-6-36-1-6-1-6 1-3l1 3v-10l2 7c3 9 3 9 3-5v-10l4 4zm-610 6c6 3 14 10 25 19l5 5-6-3-7-3 4 3 3 4-6-3-7-3 8 8c7 7 8 7 5 7-5 0-16-7-31-19-3-3-3-3-1-2 2 0 2 0-1-3-4-4-4-4 3 0l7 2-8-7-8-8c0-1 11 1 15 3zm642 8c4 8 6 19 5 40v9l-2-7-1-6-1 5v5l-3-8-2-8v5l-1 12-1 6-2-5c-2-5-4-19-4-32 0-8 0-8 1-5l1 4 1-5v-5l2 8 2 8 1-12 1-12 3 3zm-672 8c6 3 31 21 29 21l-6-2c-7-4-7-4-3 1l4 3-6-3-8-3 8 8c8 7 9 8 2 6-6-2-12-5-22-13-9-6-12-9-6-6 2 1 2 1 0-1l-4-3-1-1 7 2 7 3-9-7-8-8h5l11 3zm706 15l1 20-1 19c0 2 0 2-2-3l-1-6-1 4v5l-2-8-2-8v8l-2 11-1 4-2-4c-1-4-2-7-2-22 0-17 0-18 1-15l2 3v-10l2 6c2 9 3 10 3 2l1-12v-4l2 2 4 7zm-735 2c6 3 27 17 27 19l-8-3c-5-2-5-2 0 2l4 3-7-3-7-2 8 7 8 6c0 2-7 0-13-3-6-2-26-15-26-16l3 1c4 2 3 0-1-2l-3-3 6 2c7 2 10 3 7 1a332 332 0 01-15-12c3-1 11 0 17 3zm763 10c3 6 4 15 3 27-2 19-2 21-3 18l-1-6c0-5-1-5-2 1l-1 5v-5c-2-12-3-12-4-1l-2 11c-1 0-3-5-4-11l2-30 1 2c1 1 1-1 1-3 0-7 2-5 3 4 0 8 1 6 2-3l3-13 2 4zm-800 6c8 1 15 5 26 13 9 6 9 7 1 3-5-1-5-1-1 2 5 3 4 4-3 1l-6-2 8 7 9 6h-5c-5-1-14-5-26-12-8-4-10-6-6-5 3 1 2 0-2-2-5-3-4-4 3-1l7 2-8-6c-8-6-9-6-7-7 4-1 4-1 10 1zm832 29c0 11-3 33-4 29l-1-6-1-4-1 4c0 4-1 4-1 3l-1-7c0-8-2-6-4 6-1 10-1 10-3 7-2-4-2-15-1-28 2-12 3-16 3-11 0 2 1 2 1-1l2-4v4l1 7c0 6 2 1 3-8l2-10 3 4c2 5 2 7 2 15zm-856-9l11 5a665 665 0 0013 10l-6-2 4 3c5 4 5 4-4 1l-7-2 10 7c9 5 9 6 6 6-5 0-15-3-27-10-10-5-12-7-8-5 2 0 1-1-2-2-4-3-3-4 5-1l6 1-10-6-8-6c3-1 11-1 17 1zm884 28c0 8-4 31-6 33v-13l-1 4c-2 6-3 6-3-2v-7l-3 10-3 10c-1 0-3-7-3-12l5-30c0 4 2 4 2 0l1-4 1 7c0 9 1 8 4-3 2-13 2-13 4-8 2 4 2 6 2 15zm-909-7l26 14-5-1c-6-1-6-1-1 2 4 2 4 3-4 0l-7-1 8 6 9 5c2 2-7 1-15-2-11-4-25-11-22-11 2 0 2 0-2-2l-4-2 4 1 8 1c3 0 1-1-6-5l-9-6c1-2 14-1 20 1zm937 27l-4 22-4 13v-6l-1-3c-2 6-2 4-2-4v-7l-7 19c-1 3-2 1-2-4-1-4 1-20 4-33 1-5 1-5 2-2v4l1-5c1-3 2-4 2-2v4l1 5c0 3 0 2 3-6 3-13 3-13 5-8 2 3 2 5 2 13zm-963-5l27 12h-6l-7-1 4 2 3 2h-4l-7-2c-2 0 0 2 7 5l10 6h-5c-6 0-18-3-30-9-5-2-6-3-4-3s2 0-2-2c-5-2-3-2 5-1l6 1-10-6c-11-5-11-6 0-6l13 2zm988 15c3 7 2 17-5 37l-3 11v-7c0-6 0-7-2-1l-2 4 1-8v-8l-4 11c-4 12-6 12-6 1 1-8 7-35 8-32 1 2 1 2 2-2l1-4 1 8v8l3-11 4-10 2 3zm-1015 8c5 1 21 7 26 10 2 1 1 1-3 1l-7-2 3 3 4 2h-3a265 265 0 00-12-2l10 5 10 5-7 1c-9-1-39-11-33-11h3l-3-1c-6-2-5-3 3-3l7 1-10-4c-9-4-10-4-8-6 2-1 13-1 20 1zm563 10a635 635 0 01313 112l-16-7a875 875 0 00-445-67 872 872 0 00-279 74l47-30c81-47 175-75 273-82l20-1c12-1 71 0 87 1zm479 15c0 6-2 12-7 27l-4 11v-6c0-6 0-7-2-1l-2 4v-4l1-9c1-6 1-5-3 5-6 14-5 13-6 9-1-5 1-18 5-31 2-6 4-9 4-7-1 4 1 4 1 0 2-7 3-4 2 3v8l3-10 5-11c1-2 3 6 3 12zm-1066-1l18 6 10 4-7-1c-6 0-6 0-3 1 5 2 4 3-3 2h-8l10 4 10 4c2 2-6 2-13 1-10-2-30-8-27-9 2 0 2 0-1-2-3-1-3-1 4-1h7l-10-4-10-4c0-1 6-3 11-3l12 2zm1090 23c0 4 0 9-2 13l-11 28 2-11c0-2-1 0-2 2l-3 4 1-7 1-7-5 10-5 9v-13c1-8 9-29 10-26 0 2 0 2 2-2l2-4-1 8v8l4-10 4-10h1l2 8zm-1104 5c17 5 18 5 11 5h-6l4 2 4 2-8-1h-7l11 4c12 4 12 6 0 5-9 0-37-7-31-7h3l-5-2-5-2h17l-9-3c-16-4-15-4-7-7 6-1 15 0 28 4zm1127 22c0 8-3 16-10 31-5 11-6 12-3 3l1-7-3 4-2 4 1-6c2-10 1-10-4 1-5 10-5 10-6 8-1-5 1-13 6-27 4-10 6-13 6-10 0 2 0 2 2-2l2-4v5c-2 10-1 10 4 0 5-11 6-11 6 0zm-1145 4l13 4h-7l-3 1c7 2 6 3-2 3-7 0-9 0-4 1l10 3 6 3c-2 2-18 1-30-1-12-3-14-4-9-4l-3-1-5-2h11c5-1 4-2-5-4l-10-3 3-2c7-3 19-2 35 2zm1167 24c-1 9-1 10-8 24l-8 15 1-5c1-7 1-8-2-3-2 4-2 4 0-4 2-9 1-9-5 2-5 9-6 10-6 8 0-6 2-14 8-27 5-12 7-14 6-9-1 3 0 3 2-2 2-6 3-5 1 3l-1 7 6-9 5-9 1 9zm-1190 2c13 3 14 3 7 4l-6 1h4c4 1 7 3 4 3h-15l11 3 11 3-8 3c-6 0-36-4-32-5v-1l-5-1c-2 0-2 0-1-1l7-1 6-1-10-2-10-3 2-2c6-3 18-3 35 0zm1211 23c0 8-3 16-12 30l-7 12 2-6 2-7-3 4-3 3 2-7 2-7-6 10-7 9v-5c1-6 4-14 11-28 4-7 5-8 5-5l-1 4 2-5c3-5 4-4 2 2-2 9-2 9 4 0l6-10 1 6zm-1229 5l11 2-6 1c-5 0-6 0-5 1l5 1c2 0 2 0 1 1l-7 1c-9 0-6 1 5 4l10 2c0 1-8 3-13 3l-29-3 2-1-3-1-5-1 8-1 7-2-11-2-10-2 12-5c5-1 16 0 28 2zm1248 29c0 3-2 8-4 11-3 7-15 25-16 25l2-6 2-6-3 3-3 4 2-6c3-9 3-9-3-1l-6 9-2 3v-6c1-6 4-14 12-27 6-8 6-9 4-3l3-3 3-4-2 7-2 7 7-9c5-9 5-9 6-6v8zM848 522a41 41 0 0113 72c-6 5-8 5-5 1l2-4 5-6 6-7 1-7c1-4 1-5-1-10-1-5-2-6 0-7l1-5-7 2-13 2c-9 1-26 0-23-1 3 0 1-2-3-2s-4 0 3-2l9-2-8-1-12-1h-3l3-3c8-4 19-6 37-4h8l-4-3c-12-10-31-9-43 2-5 4-7 10-7 19l1 6h-3l-6 2-3 1v-6c2-17 14-31 30-36h22zm1328 4c12 4 20 14 24 26 3 8 3 15 0 23-9 30-46 39-68 16l-4-5 4 1h5c1-2 1-2 1 0l4 6c6 7 17 9 26 4l5-2h3c2-1 2-2 1-5v-34l1 3v-3-4l1-1 2 7c1 7 1 7 2 5l1-9 1-9 1-2 1 2c4 6 5 12 5 23 0 10 0 11 2 8l1-12c0-10 0-11-3-17-4-8-7-10-13-11-4 0-8 1-14 4-2 0-2 0-2-4l-2-8-2-5c0-1 12 1 17 3zm-19 7c0 4-3 14-6 18a353 353 0 01-15 19c3-6 3-8 0-4l-3 4 1-5 3-7c0-3 0-3-8 8-6 8-8 7-4-3l15-26c2-2 2-2 1 0 0 3 1 3 3-2l3-3-3 8c-2 9-2 8 5-3l7-8 1 4zM987 550a1468 1468 0 00225 222l-10 7a519 519 0 00-148 148l-8 11-8-8a1294 1294 0 00-184-190l-15-13-18-15-16-14a883 883 0 01167-166l15 18zm1058-7l39 34 12 10c27 25 71 72 95 104l6 8-9 7a1507 1507 0 00-232 233l-9-13a509 509 0 00-146-146l-12-8 16-13a1488 1488 0 00224-227l16 11zm123 19c-1 10-5 26-8 31-2 1-2 1-1-3 2-7 1-9-1-4l-2 4 1-5 1-8-6 8-6 10v-6c1-4 2-9 6-17l5-13 1-3 2-4c1-1 1 0 1 4 0 7 1 6 3-3l1-7c0-2 0-2 2 2l1 14zm-1323-1c16 4 22 7 10 5h-5l4 2 3 2h-3c-12-2-12-2-1 3l10 6c0 2-9 1-17-3a410 410 0 00-26-11h12l-5-1-11-3c-4 0-4 0-2-1 8-3 19-3 31 1zm-27 10l28 19-6-3c-6-2-8-2-3 1 4 3 3 4-4 1l-6-3 8 7c8 6 8 7 6 7l-9-2-27-17 3 1-2-2-4-4 7 3 8 2-9-7-9-7h7l12 4zm1431 13c2 5 3 18 0 33-2 13-3 16-3 7 0-5 0-6-1-5l-1 4-1 4-1-4-1-8c0-3-1-2-3 8l-2 12-1-4c-2-5-2-15-1-28 2-12 2-13 3-10 1 2 1 2 1-2 0-6 2-4 3 4 0 9 1 8 3-6l2-9 3 4zm-1459 5c8 4 25 15 24 16l-5-1c-5-3-6-2-2 1l4 3-7-3-7-2 9 7 8 7c-4 0-16-4-27-10-13-8-14-8-10-8 3 1 3 1-1-2-3-2-3-2-1-2a91 91 0 0113 4 221 221 0 00-19-13l7-1c6 1 9 1 14 4zm1487 14c3 9 3 18-1 39l-3 11v-15l-2 5-2 6v-8l-1-8-2 10-3 11c-1 1-3-7-3-12 0-8 4-33 5-29 0 2 1 2 1 1l1-5c0-5 2 1 2 8s1 5 4-8l2-9 2 3zm-1524 2c5 1 18 7 28 14 7 4 7 5 0 3-6-3-7-2-3 1 5 2 4 3-3 0l-6-1 8 6 9 6h-6l-21-8-14-8 4 1c4 1 4 1-1-2l-4-2 8 1 7 2-10-7c-9-5-10-5-8-6h12zm1552 20c3 6 2 20-2 35l-4 13v-6l-1-6-1 4-2 5v-8l-1-7-2 8-3 10c-2 3-3 0-3-8 0-9 5-33 6-33v2l1 2 1-2 1-4c1-1 1 0 1 4 0 9 1 9 4-2l3-10 2 3zm-78 1c2 10 10 16 21 16l6 1v3c3 11 10 17 20 17h6v4c1 7 6 13 11 16l9 2h5l1 6c1 5 2 7 5 11 4 4 10 6 15 6 2 0 3 1 3 2 0 12 10 22 21 22 1 0 2 1 2 6l2 8c3 6 12 11 17 11 3 0 3 1 3 7l3 9c2 5 9 9 14 10h4v6c0 11 5 18 14 20l5 1v7l1 9c2 5 8 10 13 11l4 1v9c0 7 1 8 3 12l9 6 5 3-1 5 1 10c2 6 8 12 13 13 3 0 3 0 2 3-3 11 1 21 10 25 4 2 5 3 4 5l-1 9c0 6 1 7 3 11l12 9-2 4c-3 10 1 20 11 26 2 2 2 2 1 5-4 9-1 20 7 25l4 3-2 5c-4 9-2 16 5 23l5 5-2 4c-4 9-2 19 5 25l4 3-3 5c-4 9-2 18 5 25l3 3-2 5c-5 8-4 17 3 25l3 3-3 5c-4 8-4 15 0 21l4 6c2 1 2 2-1 5l-4 8v10l4 8c3 3 4 4 1 6-2 2-6 11-6 14 0 4 3 11 6 14l2 3-3 3c-8 8-8 21 0 28 1 2 1 2-1 4l-6 7c-2 3-2 5-2 10s1 8 3 11l2 3-4 5c-7 7-8 15-3 24l2 4-3 3c-8 6-10 17-6 26l2 4-2 2c-10 6-12 18-7 27v4c-10 6-15 17-10 27v5c-3 1-7 5-10 8-4 6-4 13-1 21 1 1 0 2-3 4l-8 6c-2 4-3 5-3 11l1 9c1 2 1 3-2 4l-7 5c-6 6-7 13-4 22l-4 3c-9 3-14 12-13 22l1 6-5 2c-9 4-12 10-12 20l1 7-5 1c-9 3-14 10-14 21v6l-5 1c-5 1-11 6-13 11l-1 9v6l-4 1c-10 1-16 8-17 18v7l-6 1c-6 1-11 5-14 10l-2 8v6l-6 1c-6 1-12 5-15 10l-2 8-1 5-7 1c-9 2-14 8-16 18 0 4 0 4-3 4-6 0-11 2-15 5-4 4-6 7-7 13v4h-7c-10 1-17 7-19 17 0 4 0 4-3 4h-8c-7 2-13 8-15 14l-1 5h-9v-44l7-10a913 913 0 00173-480 899 899 0 00-173-585l-7-9v-31-31l5-1c3 0 4 0 4 3zm-1494 2c6 2 26 13 26 14l-6-1-6-1 4 2c4 2 3 3-5 1l-6-1 9 5 9 6c-2 2-17-2-33-10l-5-3h3l-3-2-4-2 7 1 8 1-6-3c-15-8-15-8-12-9s14 0 20 2zm46 12h3v47l-12 17a893 893 0 00-162 625 892 892 0 00169 432l5 7v62h-5c-4 0-4 0-5-4-3-10-10-15-20-15-6 0-6 0-7-3-2-12-9-18-21-18-4 0-4 0-5-4-2-11-8-16-23-18-1 0-2-2-2-5-1-6-3-10-7-13s-10-5-14-5c-3 0-3 0-3-4s-2-10-5-13c-2-3-8-6-13-6l-5-1v-5c0-10-6-17-16-19l-6-1v-6c0-10-6-18-16-19l-4-1v-6c0-7-3-13-7-16-3-3-9-5-12-5v-5c1-11-4-18-14-22l-5-1v-8c0-10-2-15-11-19l-6-2 1-5c2-10-4-20-13-23-3-1-3-1-2-5 1-7 0-12-2-16s-7-8-11-10c-2 0-2-1-2-3 2-6 2-11 1-15-2-4-7-10-11-12-4-1-3-1-1-7s1-12-3-17l-7-7c-4-2-4-1-2-7l2-8c0-6-5-14-12-18v-4c5-10 3-18-5-25l-5-5 2-3c5-7 3-17-3-24l-5-4 2-5c5-8 2-21-5-26l-3-2 3-6c5-9 4-17-3-24l-4-4 2-2c7-8 6-20-1-28l-3-3 2-2c7-9 7-20 0-29l-3-3 2-2 4-4c4-8 3-15-2-22l-3-5 3-3c7-7 8-15 3-25l-3-5 2-3c8-9 9-20 2-28-1-1 0-2 3-6 7-8 9-16 4-25l-2-4 3-3c8-6 10-17 6-25l-3-5 4-2c5-4 9-12 9-17l-2-9c-2-3-2-5-1-5l6-4c6-7 7-13 3-26l3-3c4-2 8-7 10-12 1-5 1-7-1-13v-5c7-4 9-6 12-11 2-5 2-9 0-17 0-2 0-3 3-4 8-3 14-14 12-23-1-5-1-6 2-7l7-4c6-6 8-11 6-19-1-5-1-5 2-6 5-1 11-6 13-11 2-3 2-6 2-11l-1-6 4-1c5 0 11-6 13-11 2-3 2-6 2-10-1-6-1-6 1-6 3 0 9-3 12-6 4-4 6-8 6-15 0-6 0-6 2-6l8-3c7-3 10-9 11-17v-5l4-1c11-2 17-9 17-20v-5l6-1c10-2 17-9 17-18 0-5 1-5 3-5 12 0 21-9 21-19v-4h4c11 0 19-7 21-18l1-4h5c10 0 17-6 20-16l1-5h6c10 0 17-4 20-14 1-5 2-5 7-4zm1553 9c2 7 1 18-4 33l-4 13v-6l-1-5-1 4-2 5v-9l1-8-4 9c-1 6-3 11-4 11-2 2-2-8-1-15 2-10 7-28 7-24 0 2 0 2 2-2l2-5v16l3-11 4-10 2 4zm-1630 0c8 1 32 13 27 13l-6-1c-3-1-3-1 1 1l4 3-6-1c-8-2-8-1 2 4 7 4 9 5 7 6-3 1-15-2-27-7l-11-5c4 1 3-1-2-3-3-2-3-2-1-2l13 2-11-5-8-5 3-1c3-1 9-1 15 1zm836 9a373 373 0 01168 63 549 549 0 00-224-44 524 524 0 00-208 46 393 393 0 01264-65zm820 19v11l-10 30v-11l-2 4-2 4 1-8v-6l-4 9c-4 10-5 11-6 8-1-5 2-17 6-30 3-11 4-14 3-8-1 4 0 4 2-2l2-3v13l4-9c4-11 5-11 6-2zm-1680-5l28 11h-4c-7-1-8-1-4 1l4 2h-6l-8-2 7 5 11 4 1 1-8 1c-7-1-26-6-32-10l-3-1 3 1 3-1-3-1-3-1c-1-1 0-1 6-1l7 1-18-8c-3-1-2-2 2-3 6-1 9-1 17 1zm-22 25l16 5 10 4h-6l-7-1 4 2 4 2h-8l-8-1 11 4 10 5c-1 2-15 0-29-4-12-3-13-4-10-4l2-1-5-1c-2-2-2-2 4-2h7l-10-4c-9-3-10-3-8-4 5-3 13-3 23 0zm1716 10v8l3-8 4-8 1 3c2 8 0 17-6 33-4 11-5 12-4 4l1-7-2 4-2 4v-6l2-7c1-5-2 0-6 8l-4 10-1-7c0-5 2-12 5-21 4-12 7-18 6-11-1 4 0 2 2-3l2-4-1 8zm-817 10a512 512 0 01452 598 510 510 0 01-453 424 521 521 0 01-467-206 513 513 0 01468-816zm-919 6c5 1 13 3 16 5l7 2-7-1h-8l5 2 4 2h-7l-5 1 10 3 7 4c-4 2-14 1-26-2-14-4-17-5-13-5 3 0 3 0-1-1l-5-1 8-1 6-1-10-3-9-4c1-1 7-3 12-3l16 3zm1769 0c3 9 0 19-9 38-5 11-6 12-4 3l2-7-3 5-3 4 1-7c3-10 2-10-3 1-4 8-5 10-6 9-1-2-1-7 1-13 2-7 11-29 11-25v3l2-4 2-4-1 5-1 8c0 1 2-1 4-7l5-10c0-2 2-1 2 1zM622 750l13 4h-6l-7 1 5 1 5 2h-8l-9 1 11 3 11 3-2 1c-5 2-14 1-28-2-11-2-13-3-10-3l3-1h-4c-7-2-7-3 1-3 10 0 9-1-4-4-10-2-10-3-2-6 6-1 15-1 31 3zm1806 7c0 7-3 16-11 30l-6 11 1-6c2-7 2-8-1-3-2 4-3 3-1-5l2-6-6 10-6 10v-5l2-11c2-7 12-28 11-24 0 4 1 4 3-1l2-4-1 3-1 8v5l2-4 5-10c4-7 5-7 5 2zM603 777c9 3 10 3 6 3l-7 1 4 2-4 1-8 1 4 1 11 3c15 3-2 6-22 3-13-2-17-4-11-4 3 0 3 0-2-1l-6-1 4-1 8-1h3l-3-1-11-3-8-2 5-2c4-2 6-2 16-2l21 3zm1846 9l-3 11c-2 6-15 28-16 28l2-6c3-8 2-8-1-3-4 5-4 5-1-4l2-7-7 10-6 10v-4l2-10 14-27-1 3c0 2 0 1 2-2 3-5 3-5 1 4l-1 7 6-9c4-8 5-10 6-8l1 7zM581 804l13 2-6 1-7 1 5 2h4l-8 2-8 1 10 1c12 3 13 3 8 5a94 94 0 01-38-2c4 0 4-2-1-2-5-1-2-2 5-3h6l-10-2c-13-2-13-2-9-4 8-5 17-5 36-2zm1887 8c0 7-2 13-6 21l-14 20 2-6 1-6-2 4-3 3 2-6 2-7-6 8c-6 9-9 11-8 7l1-5c1-4 8-19 14-28 3-4 3-4 3-1-1 3-1 2 1-1 4-6 4-6 2 2l-2 8 6-9 6-9 1 5zM563 832c11 2 12 2 2 4h-4l5 1 5 1-7 1-7 2 10 2c10 1 11 2 9 3-4 2-14 3-28 2s-19-2-12-2c3 0 3 0-1-1l-5-2h5c10-2 10-3-2-4l-11-1 3-2c7-5 17-6 38-4zm1923 13c-1 7-4 14-18 33l-4 5 2-5c3-6 2-8-1-4l-3 4 2-5 3-7v-2l-1 2-6 6c-8 10-7 10-7 7l2-9 15-25 2-2-1 2v3l2-3 2-3 1-1-1 4-3 10 7-9c7-10 8-10 7-1zM549 862c7 1 7 1 3 1-8 2-9 2-4 3 6 1 5 1-3 3-8 1-7 2 3 2l11 2c2 2-8 4-20 5-14 0-25-1-20-2 2-1 2-1-1-1-6 0-5-2 3-3l7-1-5-1-12-1-6-1c0-1 6-4 11-5 5-2 22-2 33-1zm1953 19l-6 10-17 22 2-6c4-7 4-7-1-2l-3 4 3-7 3-8-6 7-7 8c-2 3-2 3-2-2 1-5 6-14 14-25 6-9 8-11 6-6-1 2 0 1 2-1 4-5 4-4 0 5l-1 5 7-9 6-8 1 4-1 9zM538 892l-5 2c-6 0-6 2 0 2 3 0 3 0-3 2l-8 2 9 1 10 1h2l-2 2c-5 3-14 4-29 4-10 1-12 0-9-1 2-1 2-1-3-1h-5l8-2 8-3-12-1h-11l5-3c2-2 7-4 10-4 7-2 35-2 35-1zm1980 11c-1 7-1 10-3 13-2 4-11 16-19 24l-4 5 3-6c3-6 2-8-1-3-4 5-3 3 0-4l3-6-8 7-7 8c-3 0 3-13 10-22 8-10 12-15 11-12-2 4-1 3 2-1l4-3-3 6-3 7c0 2 3-2 10-10l5-6v3zM523 922l-6 2-6 2h6l5 1-7 2-8 2h11l11 1-10 5-30 3c-2 0-2 0 0-1 3-2 3-2-3-1h-6l8-3 8-3h-11l-11 1 3-3c6-5 13-7 30-8l16-1v1zm2009 16c-1 8-6 14-17 26l-10 10 2-4c3-5 4-7 1-4-5 5-5 4-2-2l4-7-8 8c-9 9-11 8-5-3a135 135 0 0120-24l-1 2 4-2 3-3-3 6-3 7 7-7 8-8v5zM509 953l-6 2-5 2h5l4 1-5 1-6 3h8c13 0 14 0 6 4-6 3-12 4-33 6-4 1-4 0-1-1 2-1 2-1-2-1h-5l7-3 7-3-11 1h-12l3-2c7-6 15-9 32-10l13-1 1 1zm2035 19l-4 9c-2 4-13 16-21 23-4 3-4 3-3 1l4-5c2-4 1-4-3-1l-3 4 2-5 4-6 1-2-8 6-8 7c-2 0 1-7 4-11 4-6 23-26 21-22-3 5-2 5 2 1l3-3-4 7-3 7 8-8 9-7-1 5zM498 984l-7 3-6 2h6l6-1-7 3-7 3 2 1 10-2c8 0 9 0 8 1-2 3-9 6-17 7-9 3-22 4-23 4l1-1 2-1h-8l5-2 7-3c4-2 2-2-9 0-13 1-13 1-10-1 2-3 8-6 14-8a233 233 0 0133-5zm2057 19c-1 6-5 12-10 18l-21 19 4-6 3-5-5 3c-4 4-4 3 0-3l5-7-9 7-8 6c-2 0 2-7 5-12 5-5 23-22 21-18l-2 2 4-3 3-2-4 7-2 5 8-7 8-7 1 3zm-2073 15l-6 3 5-1h5l-7 3-7 4c1 0 13-1 19-3h3l-2 2c-3 4-10 7-25 10-13 3-17 3-12 1h-8l7-3c8-4 7-5-5-2-11 1-11 2-7-2 6-7 13-10 32-13 15-2 15-2 8 1zm2082 23c-3 7-9 13-20 22l-12 9 3-5 2-4-4 3-3 3 3-5c8-11 8-11-7 1-5 3-5 3-5 1a155 155 0 0128-29c-2 3-1 3 3 0s3-2-2 5l-3 5 9-7c9-7 10-7 8 1zm-2091 10l-7 3 5-1h4l-6 3-6 4 20-4h2l-2 3c-4 4-10 6-26 10l-10 2 2-2-4 1c-6 2-6 1 1-3l6-4-11 2-10 2 5-5c6-6 12-8 28-12l12-2c4-2 2 0-3 3zm2099 20c-2 8-7 14-20 24a1707 1707 0 01-10 4c4-3 4-5 0-2-6 4-6 4-1-2l5-6c0-1-4 1-8 5-11 7-12 7-9 2 2-4 10-12 21-20 7-6 10-7 6-4-2 3-1 3 4-1 4-3 3-2-2 5-3 3-4 5-3 5l9-6 9-7-1 3zm-2107 13c-6 3-6 3 2 1l-5 4c-8 5-7 5 5 2 11-3 11-2 8 1-4 3-12 7-25 11l-11 4 1-2 1-2c-9 3-9 2 0-3 7-4 6-4-6 0l-10 2c-2-1 5-8 10-11 6-3 14-6 27-9 10-2 10-2 3 2zm2099 26c-6 7-6 7 7-2l8-4c1 1-5 11-9 15a154 154 0 01-28 18l5-4 3-4-3 2-5 2 4-5c5-4 6-7 4-6l-9 6-9 5c-2-2 8-13 20-21l9-7 2-1-1 2c-2 3 0 3 3 0 5-4 5-3-1 4zm-2100 3l-6 4-5 4 5-1 5-2-7 4-6 5 11-3 10-2-10 9a288 288 0 01-26 8h-4c-3 2-2 0 3-4l6-4-10 3-11 3c-1-1 4-7 8-10 6-4 14-7 25-10l10-3 2-1zm2103 27c-2 3-1 3 4 0 3-2 3-2-2 3l-5 6 8-4c13-7 13-7 10-1-4 6-11 13-21 19l-11 7c-6 3-6 3-1-3l4-4-4 2-5 2 6-5 5-6-10 5-9 5c-2 0 2-6 6-10a230 230 0 0125-16zm-2107 7l-6 4c-6 3-6 4 0 2 4-2 3 0-3 3l-5 5 10-3 11-3c1 0-5 6-10 9a245 245 0 01-26 10c3-2 2-2-2 0-6 2-6 1 1-3l6-5-16 5-5 2c-1-2 5-9 10-13 6-3 37-16 35-13zm2109 28c-2 3-1 3 4 0s4-1-2 4l-5 5 10-5c11-6 12-5 7 2-4 6-13 12-26 19l-12 6 5-4c6-5 6-6 0-3l-5 2 6-5 6-6-10 5-10 4c-1-1 5-8 10-11a365 365 0 0122-13zm-2113 6l-6 4c-5 3-4 4 1 1 5-2 4 0-2 4l-6 5 11-4 10-3-4 5c-3 3-9 7-18 11l-14 6 2-2c2-2 2-2 0-1l-7 3 6-6c6-5 5-5-7 1l-9 3 2-4c4-7 14-13 32-21l9-2zm2114 29c-2 3 0 3 3 0 6-4 5-2-1 4l-6 5 4-2a230 230 0 0017-7c0 1-3 7-6 10-4 4-13 10-18 12l-10 5-8 3 5-4c5-5 6-6 1-3-5 2-5 1 1-4l5-4-10 4-10 3c-1 0 3-5 8-9l26-15-1 2zm-2120 8c-6 4-6 5-1 3 5-3 4-1-1 3l-6 5 10-4 10-4c4 2-20 18-34 24l1-2 2-2-4 2-5 2 5-5 5-5-9 4-10 4c-1-1 2-6 7-11l18-11 15-7-3 4zm2120 27c-2 2-2 2 0 1 7-3 7-3 2 1l-5 5-1 1 10-4 11-4-2 4c-4 7-12 13-32 20l-9 4 3-3 5-4h-2l-5 2 6-5 6-5-4 2c-10 4-17 6-17 5 0-3 9-10 21-15 14-7 17-8 13-5zm-2120 7c-6 5-6 5 0 2l4-2-6 5-5 6 10-5 10-4c0 1-4 7-8 10-6 5-28 17-25 15 3-3 2-4-3-1-5 4-5 2 1-3l6-6-11 5c-10 5-11 5-7-1 2-4 6-8 13-12l25-14-4 5zm2119 27c-3 2-2 3 3 1 5-3 5-2-2 3l-6 5 9-3c11-5 12-5 11-2-4 7-14 14-31 19a1320 1320 0 00-8 1c7-4 7-5 1-2l-4 1 6-5 6-4-10 3-11 3c-1-1 3-5 8-8 2-2 7-5 12-6l12-6c6-2 7-2 4 0zm-2118 7l-5 4 5-2 4-2-5 5-5 6a155 155 0 0020-10l-6 8c-3 4-15 13-25 18-3 2-4 2-2 0 3-3 2-3-3 0l-4 2 5-5 5-5-9 4-9 5v-3c2-6 13-16 26-23l12-7-4 5zm2113 28c-3 2-2 3 3 1 6-3 6-2-1 2l-6 5 10-3 10-3-1 4c-4 5-13 11-26 15-18 6-18 6-12 2 5-4 5-5 0-3s-3 0 3-4l6-4-11 3-10 3 2-4c4-4 11-7 25-12 11-4 13-5 8-2zm-2107 2l-4 4-4 4 4-2 5-2-4 5c-5 5-6 7-4 6l18-11-2 4c-4 6-13 14-29 25-2 1-2 1 0-1 3-4 2-4-3 0-4 3-4 2 2-5s6-7-7 2l-8 4 2-6c3-6 10-13 21-19a447 447 0 0013-8zm2103 32l-1 2 5-2c3 0 2 1-3 4l-6 4 10-2 11-3c1 2-8 9-14 12s-31 11-32 10l6-4c5-3 5-3-3-1-2 0 0-1 4-4l4-3c-18 4-19 4-16 1 3-4 10-7 23-12l14-4-2 2zm-2101 4c-5 6-5 7-1 4 6-4 6-3 1 2l-5 6 9-5 9-5c0 4-8 13-20 22-9 7-12 9-8 5 1-2 1-2-1-1l-4 3c-3 2-3 1 3-6l3-4-9 6c-10 7-11 6-7-1 4-8 8-12 20-21l13-9-3 4zm8 30l-3 5c-3 4-3 5 0 2 6-5 6-4 0 4-5 7-5 6 5-1l10-6-3 5c-3 5-14 17-26 26l1-1 1-3-4 3-4 3 2-3 5-7 1-3-8 7-9 6 3-11a313 313 0 0129-26zm2085 1c-1 1-1 1 1 1l4-2c4-1 2 2-4 5l-6 3 11-2 11-2-4 4c-5 6-14 9-28 12-17 4-17 4-11 1 8-4 8-4 3-3l-5 1 6-4 6-3-10 1c-12 2-12 2-9 0 3-4 10-7 23-11 13-3 15-4 12-1zm-2080 36c-3 5-3 7 1 3 4-5 4-3-1 4s-6 8 8-3c4-4 6-5 6-3 0 4-9 15-22 26l-4 3c3-4 2-4-3 0-4 4-4 3 0-3l3-6-7 6-8 7c-3 0 2-12 6-17 3-4 23-22 24-21l-3 4zm2075-4l-3 2-1 1c9-2 9-2 3 2l-6 4 20-3c0 1-7 7-10 8-4 3-13 5-25 7-14 3-15 2-8 0 7-3 7-4 2-3h-5l7-3 7-4-11 2-11 1c-1-1 6-6 11-7l17-5 13-2zm-2063 32l-3 6c-4 5-3 5 2 1 3-3 3-3 2-1l-5 8-2 5 5-5 9-8 3-3v3l-5 9c-4 5-22 25-20 21s1-4-2 0c-3 3-4 2-1-3l4-6c1-3 2-3-11 9l-5 4v-3c-1-5 6-15 18-27l11-10zm2051 3h7l-7 3-7 4 18-2c5-1 5 0 0 4-7 5-17 8-40 11h-5l6-3 6-3-5 1h-6l8-3c9-3 7-3-5-2h-9c1-3 11-7 19-8l20-4c2 0 2 0 0 2zm-2043 35l-3 6 3-4 4-3-3 6-3 7 8-8c6-6 8-8 8-6 0 5-7 16-17 27l-6 6v-2c1-2 0-1-3 1l-3 4 3-7 3-7-8 8c-5 6-8 8-8 7 0-3 3-13 7-18 3-5 20-24 21-23l-3 6zm2032-3c-4 1-2 2 2 1 6 0 5 0-3 3l-7 3 12-1c10 0 11 0 10 1-4 6-16 10-33 11-15 1-17 1-10-1 7-3 7-3 1-3h-5l8-2 6-3h-21c0-1 5-4 10-5a173 173 0 0130-4zm-2019 33c-3 6-3 7 1 2 3-5 3-3 0 4l-3 7 7-8c6-6 8-7 8-6 0 3-4 12-10 20l-12 13c2-3 1-3-2 0l-3 3 3-7 3-7-8 9-7 8c-2 0 0-9 2-14l4-7 20-23-3 6zm2005 0c-3 1-3 1 3 1h5l-7 2-7 3h21l-3 3-8 5-33 3h-6l7-3 6-2h-10l7-2 7-3h-23l6-3c5-3 14-5 26-5l8-1h4l-3 2zm-1453 18a524 524 0 00155 150l-5 4-13 10c-71 57-142 128-207 208l-15 18-21-16a930 930 0 01-145-149 1484 1484 0 00240-241l11 16zm910-3a1407 1407 0 00229 227l-10 13a902 902 0 01-156 153l-7-7a2296 2296 0 00-112-125c-40-40-78-74-113-101l-9-7 14-10a524 524 0 00153-157l11 14zm-1448 16c-4 7-4 7 0 2l4-3-3 6-3 8 7-8 7-8c2 0 0 6-3 12-3 7-16 25-17 25l1-3-2 2-4 3 2-6c2-4 3-6 2-7l-1 1-6 8-6 6c-2-3 1-12 4-18l20-26-2 6zm1977 0l-2 1h5c7 0 5 1-3 3-9 2-8 3 4 3l11 1-4 2c-6 5-14 6-31 6l-15-1 6-1 5-2h-4c-7 0-6-1 2-3 6-1 8-3 5-3l-19-1c0-1 7-4 13-5h27zm-1962 29c-3 6-3 8 0 4 3-5 4-4 1 2l-2 7 7-7c3-5 7-9 7-8 1 3-4 15-12 27l-8 12 1-3c2-4 0-3-2 1-4 4-4 4-1-5l2-7-6 9-7 9c-3 0 0-14 5-22a340 340 0 0115-19zm1943 1c4 0 5 1 3 1h-3l4 1h4l1 1-7 2-7 2 11 1 11 1c1 1-3 3-8 5s-7 2-19 2l-19-1-5-1h6c7-1 8-3 1-3h-5l8-2 7-2-5-1a75 75 0 01-12-1c-5 0-4-2 2-3 7-3 19-3 32-2zm-1927 30c-3 7-3 7 1 3l3-4-2 6c-3 9-2 9 4-1 5-7 7-9 7-7 1 4-3 13-9 24-8 13-10 17-8 12s1-4-2 0l-3 4 2-7 1-7-10 16c-1 2-1 2-2 1-1-4 0-12 2-18l18-28-2 6zm1906 0l8 1c-4 1-3 2 3 2 3 1 2 1-5 2s-7 1-4 2l11 2 8 1-5 3c-4 2-6 3-15 3l-22-1c-10-2-10-2-6-2 8-1 10-3 5-3-6 0-5-2 3-2l6-2-11-1-10-2c-1-2 14-5 20-4l14 1zm-1888 29l-2 6 3-4 3-4-2 7-2 8 6-10c7-10 8-10 7-1-1 3-14 32-16 32v-3l-1 2c-3 5-4 4-1-4l1-7-6 10-6 8c-2-1 0-14 2-20l16-27-2 7zm1870-1c9 1 10 2 7 2l-4 1 5 1c6 1 6 2-2 3-9 0-8 1 5 3l9 1-2 2c-4 3-10 4-21 4l-20-3-10-1 6-1c6 0 10-2 4-2l-4-1c-1-1 0-1 4-1 10 0 10-1-1-3l-10-3c0-3 16-4 34-2zm-1851 27c-2 7-1 8 1 4 3-5 3-5 1 3l-1 7 6-10 5-9 1 4c0 4-4 16-10 29-3 6-4 8-4 6s0-2-2 1c-2 4-3 2-1-5l1-5-6 9c-2 6-5 10-5 9-2-1-1-14 1-19l15-30-2 6zm1828 1c11 2 13 3 9 3l-4 1 6 1c5 0 5 0 3 1l-7 1c-8 0-6 2 5 3l10 3-5 3c-7 2-17 2-33-2l-14-2 7-1c6-1 6-1 0-3-2 0-1-1 5-1h8l-9-3-11-4 3-1c3-2 14-1 27 1zm-1807 25c-2 9-2 10 1 5l2-5-1 7c-2 9-1 9 4-1l5-10 1 5c0 6-3 15-9 30-2 5-3 6-3 4s0-2-2 2l-2 4v-8l1-7-2 4a331 331 0 00-8 15l-1-5c-1-6 1-16 6-27a1023 1023 0 008-13zm1785 2l12 3h-2l-2 1 5 2c4 0 4 1-4 1l-9 1 5 1 11 3 7 2-3 2c-6 3-20 2-37-2l-13-4h14l-5-2-5-2h16l-10-3-10-4c2-3 14-2 30 1zm-1764 27l-1 6 2-4 2-4v7l-1 7 5-9 5-10c2 0 1 8-1 16-3 10-9 27-9 23 1-4 0-3-2 2l-2 5 1-8v-8l-5 11c-4 9-4 9-5 7-2-4-1-14 0-20l12-28-1 7zm1742-1c11 3 13 4 10 4l-4 1h4c7 2 6 3-2 3h-7l10 4 10 3c0 2-9 3-17 3-7-1-30-7-32-9h11l-3-1c-7-3-6-3 2-3a1022 1022 0 01-11-7h-3l3-1c4-1 16 0 29 3zm-1707 33c-2 11-9 30-9 26 0-3 0-3-2 1l-1 4v-8l-1-7-3 10-4 10c-1 0-3-7-3-12s2-15 6-26l4-10c1-4 2-2 1 4-1 5 0 7 1 2l2-4c1 0 1 2-1 12a619 619 0 017-14l2-3 1 3v12zm1682-8l10 4c-2 1-2 1 2 2l4 2h-15l11 4 11 4-3 1-11 1c-7 0-17-2-35-9l-4-2 7 1h7l-4-2-4-2 8 1h7l-9-3-10-5c-2 0-2 0 0-1 3-2 15 0 28 4zm-1035 14a550 550 0 00391-7c-62 39-131 59-209 59a384 384 0 01-218-65 631 631 0 0036 14zm-623 11l-3 20-3 14-1-2-1-3-1 5-2 5v-8l-1-8-3 10-4 10-2-6c-2-7-1-15 5-32l4-13v12l2-5c2-3 2-3 1 5v9l4-11c4-12 5-13 5-2zm1632-2c14 5 17 6 12 6-4-1-3 1 1 2 4 0 5 2 0 1h-7c-6-1-3 0 7 4 12 5 12 7-1 6-9 0-14-1-31-8l-9-4 6 1h6l-3-2-4-2 6 1 7 1c5 1 0-2-8-6l-9-4c0-2 15 0 27 4zm-1607 27c0 6-4 30-6 32v-3c0-3 0-3-1 1l-2 4-1-7-1-6-2 10-3 10c-1 2-4-8-4-15 0-6 2-15 5-28l3-8v14l1-5c2-6 3-5 3 3v6l3-10c3-8 3-10 4-8l1 10zm1583-4c11 5 15 7 10 6-4-1-2 1 2 2 6 2 4 2-4 1l-8-1 10 5 10 5c0 3-13 3-21 0-7-2-30-13-26-13l6 2h4l-4-2c-5-3-5-3 5-1l6 1-10-6c-8-4-9-5-6-5 4-1 15 2 26 6zm-1557 18l1 7c0 6-4 32-5 30 0-3-2-2-2 2l-1 3-1-6-1-7-3 9-2 10c-1 2-4-6-5-12 0-7 1-18 5-32l1-7 1 7c0 7 0 7 1 4 2-7 2-7 3 1v8l3-11 3-10 2 4zm1517-2l24 12c-4-1-4 0 1 2l3 2h-3l-8-1c-3-1-2 0 6 4 11 6 12 7 2 7-6 0-14-2-24-7l-17-10 6 2c8 2 8 1 3-1-5-3-4-4 4-1l6 1-7-5-10-5c-1-2-1-2 3-2l11 2zm-27 20c8 3 26 13 22 13l1 1c5 3 5 4-3 2-9-3-9-2 2 4l10 6-3 1c-7 1-13-1-23-5-11-6-25-14-20-13l5 1c4 2 5 1 1-1-5-3-4-4 4-1l6 1-1-1-9-6-8-5h5l11 3zm-1463 2c1 6 1 12-1 26-1 12-2 16-2 10l-1 2-1 5-1-4-1-8c0-6-2-1-3 9l-2 9-3-4c-2-4-2-8-2-13-1-8 3-33 4-32l1 6 1 7v-6c1-6 3-4 3 4l1 5 2-10 3-10 2 4zm1425 13c6 1 16 6 27 13 6 3 7 4 5 4-3-1-3-1-1 1 6 4 6 4 0 2l-8-2c-4-2-2 0 8 6 10 7 10 8 0 7-7-1-14-4-27-13-13-8-14-9-7-6s8 3 4 0c-5-4-5-4 2-1l8 2-8-6-9-7h6zm-1409 32c0 19 0 21-2 19-2-4-3-14-3-21l2-15c2-15 3-10 3 17zm72-16c12 5 21 17 23 29 1 8 0 15-2 15v-3c3-10-3-21-12-25l-6-5c-5-7-15-10-25-8l-5 1h-4c-2 1-2 1 0 6v34c-1-2-1-2-2 2l-1 5-1-7c-2-10-3-10-3-2l-1 12-1 5-3-7c-3-7-4-8-4-20v-13l-2 4-1 13c-1 7 0 9 2 14 2 3 5 8 8 10l4 4h7c7-1 6-1 7 7l1 5-5-1c-8-3-12-5-19-11-6-7-9-13-11-22-4-19 9-39 27-45l14-1c8 1 10 1 15 4zm1290 5l-3 6-5 6c-6 6-7 9-7 16l2 8v5c-1 1-2 2-1 3 0 2 1 2 4 2 8-2 16-2 26-1 7 0 9 1 6 1-2 1-2 1 1 1h6l1 1-8 2c-5 1-6 2-4 2l11 1c9 0 10 1 3 5-6 3-16 4-26 3h-7l4 2c8 4 18 5 29 1 9-3 13-11 12-22-1-5-1-6 8-8 7-1 7-2 6 5a40 40 0 11-70-34c3-3 12-10 14-10l-2 5zm27-1c10 5 25 15 21 15l-3-1 4 3 4 3-8-3c-8-2-7-2 4 6 7 5 8 6 6 6-4 1-12-1-18-4-6-2-26-16-26-18l5 2c7 3 7 3 3-1l-4-3 7 3 7 2-9-7-8-7c0-1 9 1 15 4zm-1320 10a400 400 0 00-14 36c-2 7-2 6-2-2 1-10 0-7-2 5-2 9-2 9-4-1s1-26 7-37l2-4-1 4-1 7c0 2 0 2 2-2l3-4-1 3c-2 12-2 12 4 1l6-10 1 4zm1299 10l16 7 6 3c-1 1-1 1 1 1l4 1c1 1-1 1-6 1l-8-1 6 2 11 2 4 1-4 1c-6 2-19 1-28-1-11-4-19-7-16-7l6 1c6 1 6 1 1-2l-4-2 6 1 7 1-8-5-10-6c0-2 9-1 16 2zm-1291 9l-3 5c0 2 0 2 3-1l3-3-2 5-3 7c-1 3 1 0 7-8s6-8 7-5c0 4-5 15-13 27l-5 8v-2c0-2-1-1-2 1l-4 4 2-7 3-8-5 7c-10 14-9 14-9 5 1-9 3-14 13-28 8-11 11-13 8-7zm16 30c-3 6-2 8 1 3l3-4-3 7-2 8 6-9 7-9c1 0 1 4-1 10-2 7-17 32-16 28v-2c-5 7-5 7-3-1l2-8-6 9-6 9c-2 0 0-12 2-18s16-29 18-29l-2 6zm17 29c-2 6-1 7 2 2l2-4-1 6c-2 7-3 11-1 8l6-10 5-7v6c-1 5-2 9-8 20l-7 12c1-4 0-4-2 1l-3 4 2-8c2-9 2-8-6 5l-4 8-1-4c-2-4 0-12 3-19s14-26 15-25l-2 5zm74 5a913 913 0 00469 174 908 908 0 00598-172l11-8h56v5l1 4-5 2c-10 3-14 9-15 20v6l-4 1c-10 2-16 10-16 20v5h-4c-11 2-18 11-18 21 0 4 0 4-2 4-11 0-21 10-21 21 0 3 0 3-5 3l-8 3c-6 3-11 11-11 18 0 2 0 3-5 3-6 0-11 2-14 5-3 2-6 10-6 13s0 3-5 3c-6 0-11 2-15 5-3 3-6 10-6 13s0 3-6 3-7 0-12 3-9 9-9 14c0 2 0 2-7 2l-9 1c-5 2-10 8-11 13l-1 5-6-1-9 1c-4 0-11 6-13 12l-1 4-6-1c-10-1-19 4-22 14l-3 3c-3-2-11-2-15-1-5 1-10 7-12 12-1 3-2 3-4 3l-7-2c-8 0-14 2-18 9l-3 5h-5c-10-4-20 0-27 10 0 2-1 2-5 1-5-3-14-2-18 1l-6 6c-3 4-3 4-6 2-9-4-20-1-26 6l-4 4-4-2c-9-4-19-2-25 6l-3 3-3-2c-9-5-20-3-26 4l-4 4-3-3c-3-2-6-2-11-3-6 0-10 1-16 6l-3 3-4-2c-8-6-17-5-25 1l-4 3-5-3c-8-5-17-5-25 1l-4 4-3-4c-9-7-18-7-28 1-1 1-3 1-6-2-8-6-18-7-25-1l-4 2-3-3c-6-5-10-6-17-6-4 1-7 1-10 3l-3 3-3-4c-5-5-10-7-17-7l-10 3-3 2-3-3c-6-8-17-10-26-6-4 2-4 2-5 1-5-10-18-13-28-8h-4l-3-5c-6-6-16-9-24-5-3 1-4 1-5-1-7-11-16-14-27-10l-4 1-2-5-6-7c-4-2-5-2-11-2h-9c-2 1-3 1-4-2l-5-7c-5-6-13-7-22-4-2 0-2 0-3-3-1-4-6-10-11-12-3-2-6-2-11-2l-6 1-2-4c-1-5-7-11-11-12l-10-1-6-1c0-3-5-12-9-14-3-2-5-3-11-3-7 0-8 0-8-2l-3-7c-3-7-9-10-18-10h-6l-1-5c-2-10-9-16-19-16h-6v-4c-2-10-9-16-19-18-5 0-6 0-6-2 0-7-5-15-11-18l-8-3h-5l-1-5c-1-10-8-17-17-19h-5v-5l-3-10c-2-4-9-9-15-10h-4v-5c0-10-7-19-16-20l-5-1v-6c0-11-5-17-15-20-4-1-4-1-4-5l1-5 23-1h24l8 6zm1195-5l-6 2c-5 2-18 2-33 1-10-2-11-2-3-3h42zm-37 17l8 1c-3 0-3 2 1 2 6 0 4 2-3 2l-7 2 12 2 10 2-4 2c-6 4-19 4-35 1l-13-3h5l6-1c1-1 1-1-2-1-6 0-5-2 1-2 10 0 9-1-1-3l-11-3 2-2c5-1 19-1 32 1zm-1212 11c-2 7-2 8 1 2l2-4-1 7-2 8 10-16 2-3v5l-2 12c-3 8-12 27-12 23 1-4 0-4-2 1-2 4-3 3-1-5l1-7-5 10c-4 9-5 10-6 9-2-4-1-12 1-18l15-30-1 6zm1188 16c12 2 16 3 11 3l2 1 5 2h-4l-8 1c-5 0-2 1 9 4 9 1 9 1 7 3-6 5-23 4-48-2l5-1h7l-5-2-5-2h16l-11-4-11-2c-1-1 7-3 13-3l17 2zm-239 5l-14 10a603 603 0 01-295 100 655 655 0 01-395-88c-19-13-34-23-32-23l13 6a883 883 0 00399 71 885 885 0 00324-76zm-917 9c-1 7-9 29-11 32l-1-2c1-3 0-2-2 2l-2 5v-4l1-8c1-6 0-4-5 6l-4 9-2-10c0-5 3-15 9-28 5-10 7-12 5-5-2 6-1 7 1 2 3-5 3-5 1 4l-1 7 6-9c5-12 7-12 5-1zm1137 13l9 3c-3 0-2 2 1 2l4 1c1 1-1 1-7 1-9 0-8 1 5 4l9 3-6 3c-7 2-15 1-32-3l-14-4h14l-5-2-5-2h16l-11-3c-10-3-10-4-8-5 4-1 19 0 30 2zm-1115 11c-1 7-6 25-10 33l-1 3v-4l1-3-2 3c-2 6-3 6-3 2l1-8c1-5 0-3-4 7l-4 9c-1 2-3-7-3-12 1-6 4-17 9-29l4-8-1 5v6l3-4 1-4v8l-1 8 7-16 3-4v8zm1092 15l10 4h-4l5 2 5 2h-7l-8 1 10 2 10 4-5 2c-7 2-18 1-32-4l-13-4h6c6 0 6 0 0-2-4-2-3-2 5-1h8l-10-4c-12-4-12-4-9-5 4-1 16 0 29 3zm-1081 9l-1 7 2-4 2-4-1 7c0 8 0 8 5-5l4-7 1 6c0 5-2 13-7 30-2 6-2 6-2 3v-3l-2 5-2 5v-9-8l-4 12-4 10-1-4c-3-7-2-15 4-32l6-16v7zm1048 14l19 6c-3 0-1 2 3 3 3 1 2 1-5 1h-7l10 4 9 4-5 2c-8 2-17 0-38-8l-8-3 7 1c7 0 7 0 4-1-5-2-5-3 3-3l7 1-6-2c-12-5-14-6-13-7 1-2 11-1 20 2zm-1012 11l-5 26c-2 7-3 8-3 6-1-3-1-3-1 1-2 7-3 5-2-3 0-7-1-9-3-3-1 7-4 16-5 16-2 0-3-9-3-17 1-7 7-31 9-33v6c0 7 0 7 2 1l2-4-1 8v8l4-9 4-11c1-2 2 2 2 8zm988 12a239 239 0 0119 8c-5-1-4 1 0 2 8 1 0 2-8 1-5-1-1 1 8 5l10 3-3 2c-7 3-16 1-33-6-13-5-16-7-6-5h4l-4-2c-4-2-2-3 6-1l6 1-10-5-11-5c-1-2 12-1 22 2zm-964 4c2 5 1 13-2 26l-3 12c-1-3-1-2-3 4 0 2-1 1-1-5l-1-8-1 4-3 10-2 7-2-4c-2-7-2-17 2-32l3-14 1 6 1 7 1-5 1-5 1 8v8l3-11 4-10 1 2zm937 18c9 3 23 9 19 9-4-1-2 1 2 2l4 2h-5l-8-2c-5-1-1 2 8 6l9 4-10 2c-6 0-14-3-27-9l-12-6 5 1c6 2 7 1 2-2-4-2-4-2 6 0l6 1-9-5-9-6c1-2 10 0 19 3zm-910 10l-2 19c-2 13-2 16-3 12 0-2-1-2-2 3l-1 5v-7l-1-8c-1-1-2 4-4 14l-2 6c-2 0-4-10-4-17l3-20 2-13 1 6c1 5 1 5 3 0 0-3 1-2 1 5v8l2-4 3-11c2-9 3-8 4 2zm879 9c7 3 24 10 25 12h-2c-4-1-4 0 1 2 6 2 4 2-3 1l-7-1 10 6c7 3 9 5 7 5-5 2-16 0-26-4l-21-11 6 1 6 1-4-3-4-2 7 1 8 2-7-5-10-5-3-2h5l12 2zm-853 5a103 103 0 01-2 38c0-3-2-2-2 2 0 5-2 3-3-5 0-6 0-6-1-2l-2 11-2 8-2-5c-4-7-4-18-1-35l2-13 1 6c1 7 2 9 2 4l1-4c1-1 1 0 1 3l1 7c0 2 1 1 2-6l3-13 2 4zm824 14c8 3 26 13 23 13-1 1-1 1 2 3 5 2 5 3-3 0l-7-1 9 6 8 6c-3 2-14 1-22-3l-25-15 5 2c7 2 8 1 3-1-4-3-4-4 5-1 7 2 7 2-4-5l-9-6h5l10 2zm-796 6c2 4 2 18 0 31 0 7-1 8-1 5-1-3-1-3-2 2l-1 6-1-8-2-8-1 11c-1 12-2 13-6 3-2-6-3-16-1-33 1-10 3-12 3-5l1 6c1 1 1 1 1-2 0-7 2-6 2 1 1 9 2 8 4-5l2-8 2 4zm768 13c6 2 25 13 25 14h-2c-3-1-3-1-1 1 2 0 3 2 4 3l-4-1-8-2 9 7 9 6h-5c-9 0-17-3-33-13-11-8-12-8-4-6l7 3-4-3c-5-3-3-4 3-1 9 3 9 3-1-4l-9-7c0-2 8 0 14 3zm-740 4c2 5 4 23 2 33 0 5 0 5-1 3-1-3-1-3-1 1l-1 5-2-7-1-6-1 5-1 10-1 6c-1 0-5-6-6-11v-33l1-6 1 6 1 7 1-5c1-6 1-5 3 3 1 8 2 7 2-5l2-11 2 5zm708 11l25 15 2 2h-2c-2-1-3-1-1 1 2 0 3 2 4 3l-5-1-8-3 9 7 9 7h-7c-8-1-15-4-29-14l-10-8 6 2c7 3 7 3 3-1l-4-3 7 3 7 2-9-7-8-7c0-1 6 0 11 2zm-679 4l3 9v28c-1-2-1-1-1 3v6l-2-7c-3-10-4-10-4 2l-1 12-2-5c-5-8-6-14-6-31l1-16 1 6 2 6 1-5 1-4 1 7 2 6 1-10 1-10 2 3zm650 12c5 3 26 16 26 18l-3-1c-2-1-2-1 1 3l4 3-6-3-7-2c0 1 3 4 8 7l8 7h-5c-6 0-16-5-29-15s-14-11-7-8l6 3 1 1c1 0 0-2-3-3l-4-4 6 3c10 4 10 4 8 2l-9-8c-7-5-7-6-4-6l9 3zm-618 8l2 12c2 19 2 22 1 20s-1-1-1 4-1 3-4-5l-2-7v22c-3 0-8-10-9-17l-1-32 2 7 1 6 1-6v-5l2 7 2 8 1-12v-11l2 2c1 1 3 4 3 7zm585 5l15 10c14 10 14 10 10 9h-3l4 3c5 4 4 4-1 1l-7-3-2-1 1 2 9 7 6 6-12-1c-5-2-14-8-23-16-10-9-10-9-3-6l6 3-4-3c-4-5-4-5 4-1 7 4 8 4 5 1l-13-12c-1-2-1-2 2-1l6 2zm-557 2c3 5 5 12 7 25l1 14-1-1-1-2v4c0 4 0 4-3-3l-3-7 1 11-1 11c-2 0-7-10-9-17l-3-31 3 6 2 6v-10l3 7 2 7v-11-11l2 2zm528 11a119 119 0 0122 20l-1-1 2 4c5 4 5 4-4 0l-6-3 7 7 8 8c0 2-11-1-16-4-7-4-29-25-23-22l5 3 2 1-2-4-4-3 7 3 7 4-7-8-8-8 11 3zm-492 10a277 277 0 014 28l-2-3 1 5v5l-2-5-3-7c-2-4-2-2 0 9v11c0 1-5-4-7-9-1-2-3-6-3-10-2-5-5-29-5-30l3 6 3 6v-5l-1-4 2 4 5 9-2-12v-9l2 2 5 9zm460 1a124 124 0 0123 21c-4-2-5-1-2 2 2 0 3 2 3 3l-6-3-7-3 6 6 8 8c3 3 2 3-2 3-8-2-14-6-26-18l-11-12 5 3c6 4 7 4 3 0l-3-4 6 4 7 3-7-8-7-8c0-2 4 0 10 3zm-429 7l4 17a266 266 0 002 12l-2-2 1 4c2 7 1 7-3-1l-4-7 4 20v4l-3-3c-6-6-10-15-12-31a930 930 0 000-10l3 6-1-5v-4l3 7c4 7 5 7 3-2l-2-10v-4l2 2 5 7zm400 5l20 20h-3l-3-2 2 2 4 4c2 3 2 3-7-3-6-4-6-2 3 7l6 7c0 1-9-1-13-3l-8-7-18-20 5 3c5 4 6 3 2-1s-2-4 4 0l6 4-7-9-6-8c0-2 7 2 13 6zm-372-3c3 4 7 12 10 24 3 13 4 14 1 11-1-1-1-1-1 1 2 7 2 7-2 1-4-7-4-7-3-3a325 325 0 003 18l-5-5c-6-6-9-14-12-29-3-14-3-15 1-7l2 3-1-6 3 4 5 7a139 139 0 00-3-21l2 2zm332 6l8 6a172 172 0 0117 20c-2-2-3-1-1 1 5 6 4 6-4 0l-5-2 6 8 7 9-6-1c-5-2-12-7-17-14-6-6-15-18-14-18l5 4c5 4 5 3 1-2-3-4-2-4 3 0 9 7 8 6-2-7-4-6-4-7 2-4zm-295 9l6 15a333 333 0 003 12l-2-2 1 3 1 5c1 4 0 2-4-5l-4-5 3 10 2 11c-1 1-10-9-12-14-3-5-10-31-10-32l3 5c3 6 5 6 3 0l-1-4 4 7 4 6-2-10c-3-12-3-13 1-9l4 7zm264-1c4 2 6 5 17 18 5 6 7 9 5 8-3-2-3-2-2 0l2 3 2 2-6-3-6-4 5 8c8 9 8 10 4 9-5-1-9-4-15-10-5-6-18-23-17-24l3 3c5 4 6 4 2-1l-2-4 5 4 6 5c1 1 0-3-4-8l-6-9c0-1 3 0 7 3zm-234 2c3 3 7 11 11 22 4 12 5 14 2 10-1-3-2-1 0 3s0 3-4-2l-4-5 3 10 3 9-3-1c-4-2-9-9-12-15l-9-28 4 5 3 6-1-5v-4l4 6 4 6-6-21h1l4 4zm198 0c4 3 11 10 18 21l5 8c-3-2-2-1 1 4l1 3-1-1-11-8 7 10c5 8 6 9 4 9-9-3-16-9-26-25l-8-13 5 5c5 4 7 5 3 0-3-4-2-5 1-1l6 5 2 2-2-4-6-10c-4-7-4-7 1-5zm-165 4c4 5 7 9 13 23 3 8 3 10 2 9-2-3-3-2 0 3 1 4 1 4-5-4l-4-4 4 10 3 10-3-1c-5-3-9-8-13-15l-9-26 4 4c3 5 3 5 1-2 0-2 1-1 3 3l5 6-5-18c-1-3 0-2 4 2zm37 6a269 269 0 0112 27v3l2 4c-1 0-3-2-5-6l-5-4 4 10 4 10-3-2c-4-2-10-7-13-13l-12-28 4 5c4 5 5 5 2 0l-1-4 5 6 4 5-4-11-3-10 9 8zm99-2c6 6 15 19 19 26l1 3-3-3c-2-2-2-2 1 3s2 5-4-1l-5-5 8 15c3 4 2 5-4 2-7-4-13-11-25-33l-2-3 4 4c6 5 6 5 3-1-2-3-2-3 3 2l6 5-5-10-5-9c0-2 3 0 8 5zm-70-1c4 3 10 11 15 22 6 11 6 11 3 9l-2-2 2 4 2 4-6-5-5-5 3 7 5 10c2 4 1 4-4 1-6-4-10-9-14-17l-11-23 5 5c4 6 5 6 2 1-2-5-1-5 4 1 6 8 6 7-1-9l-2-6 4 3zm36 2c5 5 8 10 17 26l2 4-2-2c-3-3-3-2 0 3s1 4-4-2l-5-5 5 10 4 10c-1 0-8-4-11-8-6-5-8-9-14-21l-6-11 4 4c6 6 6 6 3 0l-2-4 5 5 6 6-5-10-4-9c0-2 3 0 7 4z"/>
</svg>